<?xml version="1.0" encoding="UTF-8" standalone="no"?>
<!-- Generator: Adobe Illustrator 15.0.0, SVG Export Plug-In . SVG Version: 6.00 Build 0)  -->

<svg
   xmlns:dc="http://purl.org/dc/elements/1.1/"
   xmlns:cc="http://creativecommons.org/ns#"
   xmlns:rdf="http://www.w3.org/1999/02/22-rdf-syntax-ns#"
   xmlns:svg="http://www.w3.org/2000/svg"
   xmlns="http://www.w3.org/2000/svg"
   xmlns:sodipodi="http://sodipodi.sourceforge.net/DTD/sodipodi-0.dtd"
   xmlns:inkscape="http://www.inkscape.org/namespaces/inkscape"
   version="1.1"
   id="Layer_1"
   x="0px"
   y="0px"
   width="800"
   height="800"
   viewBox="0 0 800 800"
   enable-background="new 0 0 800 600"
   xml:space="preserve"
   inkscape:version="0.48.2 r9819"
   sodipodi:docname="openaviationmap.svg"><metadata
   id="metadata3047"><rdf:RDF><cc:Work
       rdf:about=""><dc:format>image/svg+xml</dc:format><dc:type
         rdf:resource="http://purl.org/dc/dcmitype/StillImage" /></cc:Work></rdf:RDF></metadata><defs
   id="defs3045" /><sodipodi:namedview
   pagecolor="#ffffff"
   bordercolor="#666666"
   borderopacity="1"
   objecttolerance="10"
   gridtolerance="10"
   guidetolerance="10"
   inkscape:pageopacity="0"
   inkscape:pageshadow="2"
   inkscape:window-width="1366"
   inkscape:window-height="744"
   id="namedview3043"
   showgrid="false"
   inkscape:zoom="0.995"
   inkscape:cx="1044.0974"
   inkscape:cy="501.00503"
   inkscape:window-x="0"
   inkscape:window-y="24"
   inkscape:window-maximized="1"
   inkscape:current-layer="Layer_1" />
<path
   d="m 501.04351,204.79113 c -14.00379,0 -25.39986,11.4005 -25.39986,25.40975 0,14.00922 11.39607,25.40972 25.39986,25.40972 14.00381,0 25.39988,-11.4005 25.39988,-25.40972 0,-14.00925 -11.39607,-25.40975 -25.39988,-25.40975 z"
   id="path3037"
   inkscape:connector-curvature="0" />
<path
   d="m 321.9462,723.82728 -107.05766,31.03375 c 40.34068,21.107 84.71707,35.51151 131.6786,41.78489 l -1.11759,-61.5706 c 0,0 -6.10726,-17.37462 -23.50335,-11.24804 z"
   id="path3039"
   inkscape:connector-curvature="0" />
<path
   d="m 788.88051,322.00342 3.52776,0.50253 C 756.26708,138.68066 594.34572,0 399.9972,0 218.65905,0 65.588117,120.76398 16.538142,286.25475 c 1.975541,6.39195 4.103479,12.54676 6.451563,18.30063 l -12.59833,5.14407 C 3.6688674,338.77949 0,369.03399 0,400.15811 0,528.08764 60.084816,641.90629 153.47731,715.15972 l 144.26563,-60.13636 c 17.39609,-6.12092 11.2832,-23.48988 11.2832,-23.48988 L 201.10488,491.98887 235.97612,479.40259 417.85049,607.41681 c 52.1939,-18.37406 78.79603,6.54443 83.37365,14.69811 1.50706,9.13057 -3.62936,45.26321 -55.81762,63.63728 L 412.4262,800 C 627.5744,793.41041 800,616.98782 800,400.15811 c 0,-10.48012 -0.53057,-20.83035 -1.31515,-31.10717 l -17.96618,-4.37048 c 3.30764,-13.58007 6.05082,-27.93376 8.16184,-42.67704 z M 62.918312,402.19653 C 46.363223,393.07725 31.721627,380.70554 19.394219,365.42582 L 45.75363,344.1494 c 9.544711,11.84094 20.816602,21.38371 33.499604,28.36856 l -16.334922,29.67857 z m 83.401878,19.701 c -10.26154,0 -20.25781,-0.7058 -29.70092,-2.08923 l 4.91065,-33.52391 c 14.1449,2.0723 29.84767,2.27558 46.52126,0.60419 l 3.38102,33.70459 c -8.57387,0.86392 -17.01792,1.30436 -25.11201,1.30436 z m 77.66718,-11.11817 -8.66417,-32.74467 c 14.81094,-3.92438 30.4742,-9.05152 46.5495,-15.24583 l 12.16935,31.62099 c -17.22112,6.62911 -34.0584,12.14021 -50.05468,16.36951 z m 97.9419,-37.14338 -14.6529,-30.54815 c 14.41583,-6.91143 29.27194,-14.65293 44.15626,-22.99863 l 16.56072,29.5487 c -15.51086,8.70143 -31.01041,16.77607 -46.06408,23.99808 z m 90.54207,-50.59925 -18.18067,-28.58875 c 25.16281,-16.00814 40.93331,-27.8039 41.09136,-27.92249 l 20.32553,27.09806 c -0.67731,0.51386 -16.87678,12.64277 -43.23622,29.41318 z m 88.57217,-39.1931 c -29.61059,0 -53.62194,-24.015 -53.62194,-53.64275 0,-29.62775 24.01135,-53.64278 53.62194,-53.64278 29.61062,0 53.62196,24.01503 53.62196,53.64278 0,29.62775 -24.01134,53.64275 -53.62196,53.64275 z m 50.12242,330.73308 c -3.91157,0.62114 -7.61995,1.21402 -9.14959,1.59799 l -8.21264,-32.8689 c 2.95205,-0.7397 6.75636,-1.34389 12.02261,-2.19089 9.40925,-1.50197 22.30108,-3.56299 37.9192,-7.54385 l 8.35372,32.82936 c -17.10822,4.3592 -31.44505,6.65735 -40.9333,8.17629 z m 91.63144,-25.49443 -13.60302,-31.02811 c 13.10068,-5.75388 25.64256,-12.50722 37.2757,-20.09063 l 18.48547,28.3855 c -13.17408,8.59413 -27.35848,16.23399 -42.15815,22.73324 z m 79.97574,-52.32146 -23.10826,-24.77166 c 8.91254,-8.31747 17.32272,-17.44802 25.00478,-27.14889 l 26.54569,21.04489 c -8.73191,11.0222 -18.2992,21.40631 -28.44221,30.87566 z m 75.0933,-113.53633 c -6.59833,17.00759 -14.37067,33.1964 -23.1026,48.11475 L 745.53703,454.23 c 7.82317,-13.37116 14.80531,-27.92812 20.75452,-43.26993 l 31.57486,12.26442 z"
   id="path3041"
   inkscape:connector-curvature="0" />
</svg>